<svg xmlns="http://www.w3.org/2000/svg" width="0" height="0">
<?xml-stylesheet type="text/css" href="dist/style.css"?>   

 <defs>
    <symbol id='app-store' viewBox="0 0 28 33" xmlns="http://www.w3.org/2000/symbol">
        <path d="M22.7063 17.6307C22.6694 13.6324 26.0641 11.6872 26.2193 11.5966C24.2967 8.86366 21.3169 8.49026 20.2697 8.46048C17.767 8.20369 15.3393 9.92062 14.0644 9.92062C12.764 9.92062 10.8008 8.48529 8.68482 8.52747C5.96196 8.56841 3.41468 10.1055 2.01762 12.4923C-0.865556 17.359 1.28474 24.5108 4.04705 28.4446C5.42884 30.3712 7.04347 32.5223 9.15687 32.4466C11.2245 32.3635 11.9968 31.1614 14.4919 31.1614C16.9641 31.1614 17.6893 32.4466 19.8447 32.3983C22.0637 32.3635 23.4608 30.463 24.7942 28.519C26.3911 26.3108 27.0323 24.1362 27.0578 24.0245C27.0056 24.0071 22.7483 22.4229 22.7063 17.6307Z" fill="currentColor"/>
        <path d="M18.6347 5.87268C19.7468 4.51675 20.5076 2.67205 20.2964 0.800049C18.6869 0.86952 16.674 1.88554 15.5149 3.21169C14.4893 4.38029 13.5732 6.29571 13.8099 8.097C15.6179 8.2285 17.4743 7.20752 18.6347 5.87268Z" fill="currentColor"/>
    </symbol>
    <symbol id='google-play' viewBox="0 0 31 34" xmlns="http://www.w3.org/2000/symbol">
        <path d="M0.755796 2.20309C0.393349 2.57302 0.183594 3.14896 0.183594 3.89483V30.4995C0.183594 31.2454 0.393349 31.8213 0.755796 32.1913L0.845252 32.2725L16.1359 17.3701V17.0182L0.845252 2.11587L0.755796 2.20309Z" fill="currentColor"/>
        <path d="M23.0776 22.34L17.9863 17.3701V17.0182L23.0837 12.0482L23.1979 12.1129L29.2345 15.4618C30.9573 16.4122 30.9573 17.9761 29.2345 18.9325L23.1979 22.2754L23.0776 22.34Z" fill="currentColor"/>
        <path d="M22.2733 23.2008L17.0617 18.1196L1.68164 33.1167C2.25384 33.7031 3.18695 33.7738 4.24807 33.1873L22.2733 23.2008Z" fill="currentColor"/>
        <path d="M22.2733 11.1876L4.24807 1.20103C3.18695 0.620579 2.25384 0.691254 1.68164 1.27772L17.0617 16.2688L22.2733 11.1876Z" fill="currentColor"/>
    </symbol>
  </defs>
</svg>